# 3ds Max Wavefront OBJ Exporter v0.97b - (c)2007 guruware
# File Created: 02.05.2019 23:52:06

#
# object LegL
#

v  0.1195 0.0551 -0.3021
v  0.1245 0.0555 -0.3019
v  0.1199 0.0501 -0.3020
v  0.1249 0.0505 -0.3018
v  0.0872 0.0310 -0.0041
v  0.1370 0.0347 -0.0022
v  0.0835 0.0808 -0.0051
v  0.1333 0.0846 -0.0032
v  0.1093 0.0582 0.0213
# 9 vertices

vn 0.0399 -0.0167 -0.9991
vn 0.0765 -0.9955 -0.0555
vn -0.9907 -0.0755 -0.1135
vn 0.9967 0.0730 -0.0367
vn -0.0705 0.9930 -0.0946
vn -0.7328 -0.0408 0.6792
vn 0.0239 -0.6933 0.7203
vn 0.6764 0.0644 0.7337
vn -0.0803 0.7168 0.6926
# 9 vertex normals

o LegL
g LegL
s 1
f 1//1 2//1 3//1 
f 4//1 3//1 2//1 
s 2
f 5//2 3//2 6//2 
f 4//2 6//2 3//2 
s 4
f 7//3 1//3 5//3 
f 3//3 5//3 1//3 
s 8
f 2//4 8//4 4//4 
f 6//4 4//4 8//4 
s 16
f 1//5 7//5 2//5 
f 8//5 2//5 7//5 
s 32
f 9//6 7//6 5//6 
s 64
f 9//7 5//7 6//7 
s 128
f 9//8 6//8 8//8 
s 256
f 9//9 8//9 7//9 
# 14 faces

