# 3ds Max Wavefront OBJ Exporter v0.97b - (c)2007 guruware
# File Created: 02.05.2019 23:52:19

#
# object LegL
#

v  0.1097 0.0696 -0.3021
v  0.1147 0.0699 -0.3020
v  0.1100 0.0646 -0.3022
v  0.1150 0.0650 -0.3022
v  0.0863 0.0323 -0.0046
v  0.1362 0.0357 -0.0041
v  0.0829 0.0821 -0.0033
v  0.1328 0.0855 -0.0027
v  0.1093 0.0582 0.0213
# 9 vertices

vn 0.0095 0.0281 -0.9996
vn 0.0686 -0.9924 -0.1024
vn -0.9941 -0.0655 -0.0865
vn 0.9955 0.0697 -0.0638
vn -0.0671 0.9966 -0.0478
vn -0.7122 -0.0678 0.6987
vn 0.0414 -0.7251 0.6874
vn 0.6987 0.0280 0.7148
vn -0.0548 0.6853 0.7262
# 9 vertex normals

o LegL
g LegL
s 1
f 1//1 2//1 3//1 
f 4//1 3//1 2//1 
s 2
f 5//2 3//2 6//2 
f 4//2 6//2 3//2 
s 4
f 7//3 1//3 5//3 
f 3//3 5//3 1//3 
s 8
f 2//4 8//4 4//4 
f 6//4 4//4 8//4 
s 16
f 1//5 7//5 2//5 
f 8//5 2//5 7//5 
s 32
f 9//6 7//6 5//6 
s 64
f 9//7 5//7 6//7 
s 128
f 9//8 6//8 8//8 
s 256
f 9//9 8//9 7//9 
# 14 faces

