# 3ds Max Wavefront OBJ Exporter v0.97b - (c)2007 guruware
# File Created: 02.05.2019 23:46:25

#
# object LegRD
#

v  -0.0967 0.0317 -0.5793
v  -0.1017 0.0317 -0.5793
v  -0.0967 0.0366 -0.5788
v  -0.1017 0.0366 -0.5788
v  -0.0742 0.0364 -0.3420
v  -0.1242 0.0364 -0.3420
v  -0.0742 -0.0134 -0.3468
v  -0.1242 -0.0134 -0.3468
v  -0.0992 0.0091 -0.3195
# 9 vertices

vn -0.0000 0.0961 -0.9954
vn 0.0000 1.0000 0.0011
vn 0.9955 0.0091 -0.0946
vn -0.9955 0.0091 -0.0946
vn -0.0000 -0.9817 -0.1903
vn 0.7071 -0.0680 0.7038
vn 0.0000 0.6359 0.7718
vn -0.7071 -0.0680 0.7038
vn 0.0000 -0.7718 0.6359
# 9 vertex normals

o LegRD
g LegRD
s 1
f 1//1 2//1 3//1 
f 4//1 3//1 2//1 
s 2
f 5//2 3//2 6//2 
f 4//2 6//2 3//2 
s 4
f 7//3 1//3 5//3 
f 3//3 5//3 1//3 
s 8
f 2//4 8//4 4//4 
f 6//4 4//4 8//4 
s 16
f 1//5 7//5 2//5 
f 8//5 2//5 7//5 
s 32
f 9//6 7//6 5//6 
s 64
f 9//7 5//7 6//7 
s 128
f 9//8 6//8 8//8 
s 256
f 9//9 8//9 7//9 
# 14 faces

